<svg xmlns="http://www.w3.org/2000/svg" viewBox="0 0 1120 770" role="img" aria-labelledby="t d"><title id="t">The dates matter</title><desc id="d">Documented BACKS milestones precede this specific public launch.</desc><style>:root{--paper:#f8f3e9;--ink:#17202a;--muted:#59636d;--cyan:#15a7bf;--cyan2:#0b6579;--orange:#d86f25;--green:#2d8564;--line:#afbcc4;--white:#fff}text{font-family:"Nimbus Sans Narrow",Arial,sans-serif;fill:var(--ink)}.title{font-size:34px;font-weight:700;letter-spacing:.5px}.sub{font-size:18px;fill:var(--muted)}.label{font-size:18px;font-weight:700}.small{font-size:15px;fill:var(--muted)}.box{fill:var(--white);stroke:var(--line);stroke-width:2}.signal{fill:var(--cyan);stroke:var(--cyan2);stroke-width:2}.accent{fill:var(--orange)}.ok{fill:var(--green)}.wire{fill:none;stroke:var(--cyan2);stroke-width:3;marker-end:url(#arrow)}.dash{fill:none;stroke:var(--line);stroke-width:2;stroke-dasharray:8 7}text{font-size:23px}.label{font-size:25px}.small{font-size:21px}.sub{font-size:22px}.title{font-size:34px}</style><defs><marker id="arrow" markerWidth="10" markerHeight="10" refX="8" refY="3" orient="auto"><path d="M0,0 L0,6 L9,3 z" fill="var(--cyan2)"/></marker></defs><rect width="100%" height="100%" fill="var(--paper)"/><text x="45" y="60" class="title">The dates matter</text><text x="45" y="99" class="sub">Documented BACKS milestones precede this specific public launch.</text><line x1="230" y1="145" x2="230" y2="240" class="dash"/><text x="45" y="175" class="label">MAR 2026</text><circle cx="230" cy="168" r="9" class="signal"/><text x="265" y="175" class="label">BACKS executive runtime + BrowserOps V2</text><text x="265" y="210" class="small">Dated development record</text><line x1="230" y1="248" x2="230" y2="343" class="dash"/><text x="45" y="278" class="label">APR 2026</text><circle cx="230" cy="271" r="9" class="signal"/><text x="265" y="278" class="label">Skill acquisition and distillation</text><text x="265" y="313" class="small">Dated development record</text><line x1="230" y1="351" x2="230" y2="446" class="dash"/><text x="45" y="381" class="label">JUN 2026</text><circle cx="230" cy="374" r="9" class="signal"/><text x="265" y="381" class="label">Pack ask / assign across machines</text><text x="265" y="416" class="small">Dated development record</text><line x1="230" y1="454" x2="230" y2="549" class="dash"/><text x="45" y="484" class="label">JUN 16–17</text><circle cx="230" cy="477" r="9" class="signal"/><text x="265" y="484" class="label">BUCKS and Hydra public repositories</text><text x="265" y="519" class="small">Repository creation metadata</text><line x1="230" y1="557" x2="230" y2="652" class="dash"/><text x="45" y="587" class="label">AUG 11</text><circle cx="230" cy="580" r="9" class="signal"/><text x="265" y="587" class="label">Grok Bot public beta</text><text x="265" y="622" class="small">Official launch announcement</text><text x="45" y="735" class="small">Precedence of dated milestones; not a claim of universal invention.</text></svg>